<?xml version="1.0" standalone="no"?>
<!DOCTYPE svg PUBLIC "-//W3C//DTD SVG 20010904//EN"
 "http://www.w3.org/TR/2001/REC-SVG-20010904/DTD/svg10.dtd">
<svg version="1.0" xmlns="http://www.w3.org/2000/svg"
 width="300.000000pt" height="300.000000pt" viewBox="0 0 300.000000 300.000000"
 preserveAspectRatio="xMidYMid meet">
<metadata>
Created by potrace 1.10, written by Peter Selinger 2001-2011
</metadata>
<g transform="translate(0.000000,300.000000) scale(0.100000,-0.100000)"
fill="#000000" stroke="none">
<path d="M1281 2596 c-29 -31 -26 -61 9 -106 19 -24 26 -41 20 -45 -6 -4 -42
-2 -80 4 -54 9 -75 8 -91 -1 -21 -13 -21 -27 -2 -137 5 -30 4 -32 -13 -23 -11
6 -28 20 -38 31 -19 21 -61 28 -81 13 -36 -26 -38 -41 -10 -78 l27 -36 -27
-28 c-15 -16 -40 -32 -55 -35 -15 -3 -39 -19 -54 -36 -14 -16 -33 -29 -40 -29
-8 0 -24 -12 -35 -26 -20 -26 -21 -38 -21 -379 0 -360 4 -406 39 -425 10 -5
58 -14 107 -21 50 -6 131 -27 184 -46 190 -70 213 -75 240 -56 12 9 31 12 45
9 18 -5 28 0 44 21 44 60 52 65 73 46 10 -9 18 -21 18 -28 0 -19 36 -46 53
-40 8 4 29 0 45 -9 28 -14 35 -13 158 30 168 60 208 71 288 79 42 5 75 15 91
27 l25 19 0 379 c0 377 0 379 -22 400 -12 11 -30 20 -40 20 -10 0 -18 6 -18
13 0 21 -34 47 -59 47 -13 0 -37 16 -57 37 -35 36 -35 38 -16 53 10 9 24 25
30 37 9 17 7 24 -12 42 -31 29 -66 26 -100 -9 -16 -17 -33 -27 -37 -23 -5 5
-4 37 1 71 14 98 5 107 -87 92 -72 -12 -103 -13 -103 -1 0 4 14 25 30 46 34
43 38 75 12 98 -25 23 -45 21 -71 -7 -17 -18 -22 -33 -19 -63 3 -43 -19 -54
-37 -18 -22 44 -78 105 -96 105 -12 0 -36 -24 -65 -62 -25 -35 -50 -64 -55
-66 -5 -2 -9 16 -9 40 -1 46 -12 68 -46 86 -18 9 -25 7 -43 -12z m41 -23 c10
-9 18 -29 18 -44 0 -15 16 -69 36 -121 33 -87 57 -128 68 -117 7 7 -23 132
-33 142 -10 10 -3 47 9 47 11 0 20 -27 20 -63 0 -18 7 -54 14 -82 l14 -50 3
50 2 50 7 -45 c5 -37 7 -29 9 45 1 50 3 104 3 120 1 17 -1 37 -5 45 -4 8 -2
22 3 30 19 29 25 -7 24 -147 0 -106 1 -126 8 -88 5 28 7 78 6 112 -3 66 14
105 27 64 4 -12 2 -27 -3 -34 -5 -7 -12 -55 -16 -107 -6 -106 10 -95 21 14 6
68 21 97 35 72 5 -9 4 -23 -2 -33 -14 -25 -40 -136 -34 -143 8 -7 44 39 44 56
0 8 4 22 10 32 22 38 50 125 50 154 0 28 21 57 43 58 15 0 6 -54 -12 -74 -20
-23 -91 -201 -91 -229 0 -9 4 -17 9 -17 11 0 68 90 73 116 4 22 38 32 38 11 0
-8 -15 -30 -32 -49 -18 -19 -39 -46 -47 -61 -13 -24 -12 -28 10 -51 13 -14 27
-26 31 -26 13 0 100 62 105 76 3 8 14 14 25 14 25 0 21 -33 -5 -38 -9 -2 -42
-19 -73 -37 -42 -25 -53 -36 -41 -41 21 -8 218 81 236 107 13 18 71 28 71 12
-1 -21 -30 -43 -56 -43 -16 0 -38 -6 -49 -13 -11 -7 -55 -28 -97 -46 -43 -19
-83 -40 -89 -48 -10 -11 -16 -7 -33 23 -12 20 -38 51 -59 68 -36 29 -45 31
-117 31 -72 0 -81 -2 -117 -31 -21 -17 -48 -48 -60 -69 l-21 -38 62 -51 c33
-28 71 -60 84 -71 l22 -19 0 -390 0 -390 -32 31 c-54 51 -147 111 -196 127
-37 12 -186 36 -224 36 -5 0 -8 173 -8 385 l0 385 33 0 c40 0 206 -25 230 -35
10 -4 17 -3 17 4 0 15 -206 111 -238 111 -22 0 -51 23 -52 43 0 16 58 6 71
-12 19 -26 215 -115 236 -107 13 5 4 15 -36 41 -29 19 -61 35 -72 35 -10 0
-19 2 -19 4 0 2 -3 11 -6 20 -4 12 0 16 15 16 12 0 21 -4 21 -10 0 -5 25 -26
55 -46 l55 -37 26 26 c14 15 24 30 22 34 -16 39 -56 94 -70 99 -24 7 -24 47
-1 42 9 -2 20 -12 23 -23 8 -30 61 -115 71 -115 5 0 9 8 9 17 0 28 -71 206
-91 229 -18 19 -27 74 -12 74 3 0 15 -7 25 -17z m148 -123 c-6 -58 -7 -60 -9
-19 0 25 -6 50 -12 56 -6 6 -8 21 -4 33 6 19 9 20 20 9 10 -11 11 -31 5 -79z
m386 -26 c-3 -9 -6 -19 -6 -24 0 -5 -10 -10 -22 -12 -12 -2 -38 -26 -62 -58
-33 -45 -36 -52 -16 -39 14 9 34 30 45 47 11 17 28 31 38 32 19 0 20 -1 11
-24 -3 -9 -12 -16 -20 -16 -7 0 -39 -22 -71 -48 -66 -54 -107 -80 -53 -33 39
34 33 43 -7 11 -15 -11 -28 -18 -31 -16 -8 9 51 77 99 112 28 20 49 44 49 54
0 16 13 25 44 29 4 0 5 -6 2 -15z m-666 -13 c0 -10 17 -31 38 -46 20 -15 54
-46 74 -69 21 -22 38 -36 38 -30 0 6 -29 42 -65 79 -36 38 -65 72 -65 77 0 21
36 0 50 -28 8 -17 34 -54 58 -81 40 -48 53 -71 33 -59 -5 4 -11 1 -13 -5 -2
-6 -14 -2 -30 10 -41 32 -47 24 -8 -10 54 -47 13 -21 -53 33 -32 26 -65 48
-73 48 -7 0 -14 2 -14 4 0 2 -3 11 -6 20 -11 30 23 17 50 -19 15 -19 36 -40
47 -45 14 -8 10 3 -17 40 -20 29 -47 55 -59 60 -34 13 -40 40 -10 40 18 0 25
-5 25 -19z m600 5 c0 -8 -13 -24 -28 -35 -16 -11 -48 -45 -72 -76 -23 -30 -45
-53 -48 -51 -2 3 18 31 45 63 27 32 54 70 61 86 12 28 42 38 42 13z m-201
-166 c43 -22 78 -61 87 -97 7 -27 5 -26 41 -12 42 16 120 30 201 36 l72 5 0
-386 c0 -212 -3 -386 -8 -386 -38 0 -187 -24 -224 -36 -49 -16 -142 -76 -195
-127 l-33 -31 0 390 0 389 57 50 c31 28 64 56 74 63 18 13 18 14 -1 53 -64
125 -254 126 -319 2 -11 -21 -20 -31 -21 -23 0 27 49 89 88 109 50 27 131 27
181 1z m-11 -45 c17 -10 36 -29 43 -42 12 -22 8 -28 -54 -90 l-68 -67 -66 67
-67 66 20 28 c45 61 125 77 192 38z m-590 -455 l-3 -369 55 -6 c138 -15 203
-34 283 -82 58 -35 84 -58 98 -85 10 -21 19 -39 19 -42 0 -3 -51 21 -112 54
-113 58 -186 84 -330 115 l-78 17 -2 384 -3 384 38 0 37 0 -2 -370z m1094 -14
l-2 -384 -78 -17 c-140 -29 -216 -56 -329 -115 -62 -32 -113 -56 -113 -54 0 3
9 21 19 42 14 27 40 50 98 85 80 48 145 67 283 82 l55 6 -3 369 -2 370 37 0
38 0 -3 -384z m-1202 -46 l0 -370 29 0 c114 0 343 -72 414 -131 39 -32 51 -57
19 -40 -10 5 -83 33 -161 61 -133 48 -180 59 -303 75 l-48 6 0 385 0 384 25 0
25 0 0 -370z m1290 -14 l0 -385 -47 -6 c-124 -16 -171 -27 -304 -75 -78 -28
-151 -56 -161 -61 -32 -17 -20 8 19 40 71 59 300 131 414 131 l29 0 0 370 0
370 25 0 25 0 0 -384z"/>
<path d="M1894 1025 c-14 -15 -23 -32 -20 -40 7 -18 -60 -49 -83 -38 -9 4 -50
9 -91 12 -65 5 -75 9 -78 26 -5 29 -31 45 -72 45 -61 0 -70 -19 -70 -148 0
-105 1 -112 23 -126 18 -11 88 -14 385 -14 429 1 408 -4 396 98 -6 52 -13 70
-36 94 -26 26 -34 28 -83 24 -47 -4 -55 -2 -55 12 0 10 -10 30 -21 45 -20 24
-26 26 -65 20 -25 -3 -45 -2 -49 5 -11 19 -55 10 -81 -15z m80 -125 c1 -103 3
-115 19 -118 17 -3 18 3 15 73 l-3 76 35 -3 35 -3 -3 -63 c-3 -40 1 -68 8 -78
11 -13 -2 -14 -108 -13 -147 2 -157 7 -157 79 0 59 21 84 68 77 26 -3 27 -2
27 40 0 27 -4 42 -10 38 -5 -3 -10 -1 -10 5 0 7 16 10 42 8 l41 -3 1 -115z
m101 90 c9 -27 -1 -40 -31 -40 -26 0 -40 20 -30 45 8 23 53 19 61 -5z m-477
-1 c-15 -8 -18 -25 -18 -102 0 -59 4 -97 12 -105 9 -9 0 -12 -42 -11 -30 0
-49 3 -42 6 8 3 12 35 12 108 0 73 -4 105 -12 108 -7 3 14 6 47 6 45 0 56 -2
43 -10z m93 -71 c1 -7 0 -41 -1 -75 -2 -58 0 -63 19 -63 19 0 21 6 21 65 0 52
-3 65 -16 65 -8 0 -12 5 -9 10 3 6 19 10 35 10 38 0 50 -23 50 -94 0 -34 5
-56 13 -59 6 -3 -35 -5 -93 -5 -58 0 -99 2 -92 5 8 3 12 28 12 73 0 45 -4 70
-12 73 -7 3 6 6 30 6 27 1 42 -4 43 -11z m537 0 c7 -7 12 -36 12 -64 0 -29 5
-56 10 -59 6 -3 10 1 10 9 0 9 5 16 10 16 13 0 13 -6 0 -31 -12 -22 -62 -26
-78 -6 -6 7 -8 24 -5 36 4 18 2 22 -8 19 -17 -6 -25 -48 -9 -48 6 0 8 -4 5
-10 -9 -14 -48 -13 -63 2 -29 29 -2 68 47 68 11 0 22 4 26 10 8 13 -5 60 -17
60 -5 0 -7 -8 -3 -19 7 -22 -16 -44 -39 -35 -19 7 -21 35 -4 52 16 16 90 16
106 0z"/>
<path d="M1875 877 c-8 -53 0 -87 21 -87 12 0 14 13 12 62 -4 75 -24 89 -33
25z"/>
<path d="M763 1032 c-12 -2 -27 -10 -33 -17 -17 -20 -16 -240 0 -260 15 -18
79 -20 115 -3 22 10 24 16 19 45 -5 29 -4 33 15 33 13 0 25 -9 30 -22 5 -13
20 -34 34 -46 22 -21 32 -23 84 -18 77 7 73 7 116 0 43 -7 87 15 87 45 0 16 6
13 34 -15 30 -30 40 -34 86 -34 46 0 56 4 86 34 29 29 34 41 34 79 0 39 -5 49
-35 76 l-35 31 -163 -1 c-281 -2 -282 -2 -297 25 -7 14 -24 29 -39 35 -30 11
-106 18 -138 13z m127 -45 c18 -9 26 -22 28 -46 4 -41 -18 -67 -64 -75 -32 -6
-34 -9 -34 -46 0 -32 4 -39 23 -43 12 -2 -9 -5 -48 -5 -38 0 -64 2 -57 5 8 3
12 35 12 108 0 73 -4 105 -12 108 -7 3 19 6 57 6 39 0 81 -5 95 -12z m190 -79
c48 -51 7 -138 -65 -138 -47 0 -75 29 -75 77 0 51 32 83 81 83 26 0 45 -7 59
-22z m178 -9 c2 -17 -3 -29 -13 -33 -25 -9 -37 3 -30 32 5 22 4 24 -9 13 -24
-20 -22 -128 2 -134 9 -3 -10 -5 -42 -6 -47 -1 -57 2 -48 11 16 16 16 120 0
136 -10 10 4 12 62 10 73 -3 75 -4 78 -29z m150 15 c30 -21 31 -95 2 -124 -48
-48 -140 -10 -140 57 0 68 81 107 138 67z"/>
<path d="M820 930 c0 -33 2 -60 4 -60 3 0 12 7 20 16 28 27 16 104 -16 104 -4
0 -8 -27 -8 -60z"/>
<path d="M1004 906 c-3 -7 -4 -38 -2 -67 2 -40 7 -54 18 -54 16 0 26 69 15
112 -6 25 -23 31 -31 9z"/>
<path d="M1336 905 c-9 -25 -7 -98 4 -115 17 -28 31 4 28 65 -3 57 -19 82 -32
50z"/>
</g>
</svg>
